<svg width="105" height="21" viewBox="0 0 105 21" fill="none" xmlns="http://www.w3.org/2000/svg">
<path d="M0 0L4.01892 0V12.8233C4.01892 15.4553 6.75654 17.5946 10.1379 17.5946C13.5193 17.5946 16.2569 15.4615 16.2569 12.8233V0L20.2759 0V13.0977C20.2759 17.4636 15.7382 21 10.1379 21C4.53769 21 0 17.4636 0 13.0977L0 0Z" fill="black"/>
<path d="M39.5629 11.4322C39.0654 10.7706 38.3958 10.285 37.5476 9.9572C38.0386 9.67798 38.4659 9.31377 38.8039 8.8403C39.3397 8.08761 39.6075 7.1771 39.6075 6.09663C39.6075 5.21647 39.3907 4.36665 38.957 3.54719C38.5233 2.72166 37.8664 2.04789 36.9736 1.51979C36.0871 0.991694 34.9455 0.724609 33.5551 0.724609H22.2667C21.967 0.724609 21.7246 0.955271 21.7246 1.24057V19.7604C21.7246 20.0457 21.967 20.2763 22.2667 20.2763H34.3779C35.7299 20.2763 36.8588 20.0335 37.7771 19.5418C38.6955 19.0562 39.3843 18.3764 39.8499 17.5084C40.3155 16.6404 40.5514 15.6267 40.5514 14.4673C40.5706 13.3261 40.2325 12.3185 39.5629 11.4322ZM25.2196 3.77786H33.5233C34.3396 3.77786 34.9774 4.00245 35.4366 4.45771C35.8957 4.91296 36.119 5.47748 36.119 6.15126C36.119 6.66721 36.0042 7.10426 35.7746 7.45633C35.545 7.80839 35.2388 8.07547 34.8498 8.25758C34.4608 8.43968 34.0207 8.53073 33.5233 8.53073H25.2196V3.77786ZM36.6993 15.8634C36.4315 16.2822 36.0552 16.61 35.5832 16.8407C35.1049 17.0713 34.5692 17.1867 33.9697 17.1867H25.2196V11.5779H34.0654C34.7031 11.5779 35.2516 11.6993 35.7044 11.9482C36.1636 12.1971 36.508 12.5309 36.744 12.9437C36.9799 13.3625 37.1011 13.8299 37.1011 14.358C37.1075 14.9468 36.9672 15.4445 36.6993 15.8634Z" fill="black"/>
<path fill-rule="evenodd" clip-rule="evenodd" d="M74.8632 5.10729C73.3579 3.88073 71.4437 3.14355 69.3499 3.14355C64.5241 3.14355 60.6152 7.05245 60.6152 11.8782C60.6152 16.7039 64.5241 20.6128 69.3499 20.6128C71.4437 20.6128 73.3579 19.8756 74.8632 18.6491V20.4022H78.0845V11.8782V3.35417H74.8632V5.10729ZM69.3437 17.4101C66.2958 17.4101 63.8241 14.9384 63.8241 11.8906C63.8241 8.84274 66.2958 6.37103 69.3437 6.37103C72.3915 6.37103 74.8632 8.84274 74.8632 11.8906C74.8632 14.9384 72.3915 17.4101 69.3437 17.4101Z" fill="#33B567"/>
<path fill-rule="evenodd" clip-rule="evenodd" d="M83.808 14.7895V6.36467H86.9983V3.35401L83.808 3.35401V0.386719L80.5 0.386719V15.0931C80.5 18.0294 82.8788 20.4082 85.8151 20.4082H88.1257L89.3275 17.1002H86.1186C84.8363 17.094 83.808 16.0657 83.808 14.7895Z" fill="#33B567"/>
<path fill-rule="evenodd" clip-rule="evenodd" d="M103.712 13.2225C103.353 12.634 102.746 12.1198 101.91 11.6862C101.067 11.2525 99.9086 10.8561 98.4714 10.4968C97.1334 10.1746 96.0988 9.88348 95.3988 9.64808C94.6926 9.40648 94.2218 9.15869 93.974 8.89231C93.7263 8.62594 93.6024 8.29761 93.6024 7.91354C93.6024 7.25689 93.9307 6.73033 94.5749 6.35864C95.1449 6.03032 95.882 5.85687 96.7617 5.85687C96.8608 5.85687 96.9599 5.85687 97.0652 5.86306C98.1245 5.90643 98.998 6.16041 99.667 6.62502C100.324 7.08343 100.72 7.71531 100.85 8.50204L104.152 7.91973C104.022 6.97193 103.638 6.13563 103.025 5.42323C102.393 4.69845 101.556 4.12852 100.54 3.73825C99.5246 3.34179 98.3414 3.14355 97.0343 3.14355C95.6962 3.14355 94.513 3.34798 93.5218 3.75684C92.5307 4.1595 91.7501 4.74181 91.205 5.47899C90.6598 6.21616 90.3873 7.08963 90.3873 8.0808C90.3873 8.87373 90.5669 9.56135 90.9262 10.1189C91.2855 10.6764 91.8988 11.172 92.7537 11.5932C93.6086 12.0145 94.7918 12.4171 96.2599 12.7826C97.6042 13.1295 98.6201 13.4269 99.2829 13.6623C99.9582 13.9039 100.392 14.1579 100.609 14.4304C100.825 14.703 100.931 15.0623 100.931 15.4898C100.931 16.2269 100.621 16.8154 100.02 17.2367C99.4192 17.6517 98.5829 17.8624 97.536 17.8624C96.3776 17.8624 95.3988 17.6084 94.6245 17.1066C93.8563 16.611 93.3608 15.9296 93.1377 15.0809L89.8359 15.5703C90.1395 17.1376 90.9448 18.3765 92.2271 19.25C93.528 20.1358 95.244 20.5819 97.3192 20.5819C99.475 20.5819 101.191 20.1111 102.418 19.1942C103.638 18.2712 104.257 16.9889 104.257 15.3721C104.251 14.5358 104.072 13.811 103.712 13.2225Z" fill="#33B567"/>
<path fill-rule="evenodd" clip-rule="evenodd" d="M42 3.27361V17.7012C42 19.2189 43.2328 20.4517 44.7505 20.4517L59.1905 20.4579V17.1685H46.3983C46.0762 17.1685 45.8098 16.9083 45.8098 16.58V11.5932L56.2851 11.5932L57.4188 8.47722H45.8098V4.37628C45.8098 4.05415 46.07 3.78778 46.3983 3.78778L59.1905 3.78778V0.510742L44.7443 0.523132C43.2328 0.523132 42 1.75589 42 3.27361Z" fill="#33B567"/>
</svg>
